<?xml version="1.0" encoding="utf-8"?>
<!-- Generator: Adobe Illustrator 22.0.1, SVG Export Plug-In . SVG Version: 6.00 Build 0)  -->
<svg version="1.1" id="Layer_1" xmlns="http://www.w3.org/2000/svg" xmlns:xlink="http://www.w3.org/1999/xlink" x="0px" y="0px"
	 viewBox="0 0 70 70" style="enable-background:new 0 0 70 70;" xml:space="preserve">
<style type="text/css">
	.st0{fill:#4520AB;}
	.st1{fill:#29EDFF;}
</style>
<g>
	<rect class="st0" width="70" height="70"/>
	<g>
		<g>
			<path class="st1" d="M16.9,12.8h-2.7v2h2.6v0.7h-2.6V18h2.7v0.7h-3.5v-6.7h3.5V12.8z"/>
			<path class="st1" d="M27.4,12.1v6h1.8v0.7h-2.6v-6.7H27.4z"/>
			<path class="st1" d="M40.5,12.1c0.4,0,1,0,1.5,0.4c0.2,0.2,0.6,0.6,0.6,1.4c0,0.3-0.1,0.9-0.7,1.3c0.9,0.2,1.3,1,1.3,1.7
				s-0.3,1.2-0.7,1.4c-0.5,0.4-1.1,0.4-1.6,0.4h-1.7v-6.7H40.5z M40,15h0.6c0.4,0,1.3-0.1,1.3-1.1c0-1.1-1.1-1.1-1.3-1.1H40V15z
				 M40,18h0.8c0.4,0,0.8,0,1.2-0.3c0.3-0.2,0.4-0.5,0.4-0.9c0-0.5-0.3-0.8-0.6-1c-0.2-0.1-0.6-0.2-1.1-0.2H40V18z"/>
			<path class="st1" d="M53.3,12.1c0.4,0,1.1,0,1.6,0.4c0.4,0.3,0.7,0.8,0.7,1.5c0,1-0.7,1.8-1.7,1.8l2.1,3h-0.9l-2-2.9H53v2.9h-0.7
				v-6.7H53.3z M53,15.2h0.5c0.9,0,1.5-0.4,1.5-1.2c0-0.4-0.1-0.7-0.5-1c-0.3-0.2-0.6-0.2-1-0.2H53V15.2z"/>
			<path class="st1" d="M13.3,29.3c0,0.6,0,1.2,0.5,1.6c0.3,0.2,0.7,0.4,1.1,0.4c0.4,0,0.8-0.1,1.1-0.4c0.5-0.4,0.5-1.1,0.5-1.6
				v-4.1h0.7v4.3c0,0.6-0.1,1.1-0.4,1.6C16.5,31.6,15.8,32,15,32s-1.5-0.3-1.9-0.9c-0.4-0.5-0.4-1-0.4-1.6v-4.3h0.7V29.3z"/>
			<path class="st1" d="M29.3,26.5c-0.1-0.2-0.2-0.4-0.4-0.5c-0.1-0.1-0.4-0.2-0.7-0.2c-0.7,0-1.1,0.4-1.1,1c0,0.3,0.1,0.4,0.2,0.6
				c0.2,0.2,0.4,0.3,0.7,0.4l0.6,0.3c0.4,0.2,0.7,0.3,1,0.6c0.3,0.3,0.5,0.7,0.5,1.2c0,1.2-0.9,2-2.1,2c-0.4,0-1-0.1-1.4-0.5
				c-0.3-0.3-0.5-0.8-0.6-1.2l0.7-0.2c0.1,0.3,0.2,0.6,0.4,0.8c0.3,0.3,0.6,0.4,1,0.4c0.9,0,1.3-0.6,1.3-1.3c0-0.3-0.1-0.6-0.3-0.8
				c-0.2-0.2-0.4-0.3-0.8-0.5l-0.6-0.3c-0.3-0.1-0.6-0.3-0.9-0.5c-0.3-0.3-0.5-0.6-0.5-1.1c0-1,0.8-1.7,1.9-1.7
				c0.4,0,0.7,0.1,1.1,0.3c0.3,0.2,0.5,0.4,0.6,0.7L29.3,26.5z"/>
			<path class="st1" d="M43.1,24.4l0.6,0.3l-5,9L38,33.4L43.1,24.4z"/>
			<path class="st1" d="M14.8,38.3c0.4,0,1,0,1.5,0.4c0.2,0.2,0.6,0.6,0.6,1.4c0,0.3-0.1,0.9-0.7,1.3c0.9,0.2,1.3,1,1.3,1.7
				s-0.3,1.2-0.7,1.4C16.3,45,15.7,45,15.3,45h-1.7v-6.7H14.8z M14.3,41.3h0.6c0.4,0,1.3-0.1,1.3-1.1c0-1.1-1.1-1.1-1.3-1.1h-0.6
				V41.3z M14.3,44.3h0.8c0.4,0,0.8,0,1.2-0.3c0.3-0.2,0.4-0.5,0.4-0.9c0-0.5-0.3-0.8-0.6-1c-0.2-0.1-0.6-0.2-1.1-0.2h-0.8V44.3z"/>
			<path class="st1" d="M26.4,44.1c-0.4-0.6-0.7-1.5-0.7-2.4s0.2-1.8,0.7-2.4c0.5-0.7,1.2-1,1.7-1c0.5,0,1.2,0.3,1.7,1
				c0.4,0.6,0.7,1.5,0.7,2.4s-0.2,1.8-0.7,2.4c-0.5,0.7-1.2,1-1.7,1C27.6,45.1,27,44.9,26.4,44.1z M27,39.6c-0.4,0.6-0.5,1.3-0.5,2
				c0,0.7,0.1,1.5,0.5,2c0.3,0.6,0.8,0.7,1.1,0.7s0.8-0.2,1.1-0.7c0.4-0.6,0.5-1.3,0.5-2c0-0.7-0.1-1.5-0.5-2
				c-0.3-0.6-0.8-0.7-1.1-0.7S27.4,39.1,27,39.6z"/>
			<path class="st1" d="M39.3,44.1c-0.4-0.6-0.7-1.5-0.7-2.4s0.2-1.8,0.7-2.4c0.5-0.7,1.2-1,1.7-1c0.5,0,1.2,0.3,1.7,1
				c0.4,0.6,0.7,1.5,0.7,2.4s-0.2,1.8-0.7,2.4c-0.5,0.7-1.2,1-1.7,1C40.5,45.1,39.8,44.9,39.3,44.1z M39.9,39.6
				c-0.4,0.6-0.5,1.3-0.5,2c0,0.7,0.1,1.5,0.5,2c0.3,0.6,0.8,0.7,1.1,0.7s0.8-0.2,1.1-0.7c0.4-0.6,0.5-1.3,0.5-2
				c0-0.7-0.1-1.5-0.5-2c-0.3-0.6-0.8-0.7-1.1-0.7S40.2,39.1,39.9,39.6z"/>
			<path class="st1" d="M54.4,39v6h-0.7v-6h-1.6v-0.7h4V39H54.4z"/>
			<path class="st1" d="M17.7,52.9c-0.2-0.2-0.5-0.5-0.9-0.6c-0.3-0.2-0.8-0.3-1.1-0.3c-1.5,0-2.7,1.2-2.7,2.8
				c0,1.8,1.5,2.7,2.7,2.7c0.4,0,0.9-0.1,1.2-0.3c0.4-0.2,0.6-0.4,0.8-0.6v0.9c-0.7,0.5-1.5,0.6-2,0.6c-2,0-3.4-1.5-3.4-3.4
				c0-2,1.5-3.5,3.5-3.5c0.4,0,1.2,0,2,0.7V52.9z"/>
			<path class="st1" d="M29.6,56.2h-2.8l-0.8,1.9h-0.8l3.1-7l3,7h-0.8L29.6,56.2z M29.3,55.5l-1.1-2.7L27,55.5H29.3z"/>
			<path class="st1" d="M37.6,58.1l1.1-7l2.6,5.6l2.6-5.6l1,7h-0.8l-0.6-4.6l-2.3,4.9L39,53.5l-0.7,4.6H37.6z"/>
			<path class="st1" d="M53.7,51.5c0.7,0,1.2,0.1,1.7,0.5c0.5,0.4,0.6,1,0.6,1.4c0,0.9-0.6,1.9-2.1,1.9h-0.6v2.9h-0.7v-6.7H53.7z
				 M53.2,54.5h0.6c0.9,0,1.4-0.4,1.4-1.2c0-1.1-1-1.2-1.5-1.2h-0.5V54.5z"/>
		</g>
	</g>
</g>
</svg>
